<svg id="katman_1" data-name="katman 1" xmlns="http://www.w3.org/2000/svg" viewBox="0 0 459.09 119.97"><defs><style>.cls-1{fill:#e6087b;}.cls-2{fill:#272759;}.cls-3{fill:#e40a7b;}</style></defs><path class="cls-1" d="M502.77,263.45l1.36-1.44a141.73,141.73,0,0,1,18.18-15.79c1.92-1.42,3.89-2.82,5.93-4.21a216.75,216.75,0,0,1,19.5-11.81A212.62,212.62,0,0,1,569.35,220a147.71,147.71,0,0,1,29.91-8.86l1-.17c14.88-2.37,25.24-.32,28.45,5.64,3.52,6.53-1.68,17.67-13.94,30l-.84-4.74c7.6-8.3,10.33-15.07,7.91-19.6-2.25-4.21-8.79-5.77-18.65-4.54-2,.25-4.16.62-6.43,1.1a140.88,140.88,0,0,0-22.47,7A225.37,225.37,0,0,0,529.55,250c-9.23,6.49-16.69,13-21.74,18.92-6.28,7.33-8.87,13.75-6.56,18,1.68,3.13,5.57,4.79,11.59,4.94l.54,4.88c-11.25.81-18.89-1.47-21.57-6.47C488.6,284.36,492.59,274.57,502.77,263.45Z" transform="translate(-490.73 -210.03)"/><path class="cls-2" d="M576.47,270.12a20.79,20.79,0,0,1,8.1,8.14,26.91,26.91,0,0,1,0,24.42,20.79,20.79,0,0,1-8.1,8.14,23,23,0,0,1-11.46,2.9q-9.32,0-14.18-5.88v5.21H538.32V250.77h13.1v21.91q5-5.46,13.59-5.46A23,23,0,0,1,576.47,270.12ZM571,299.58q3.24-3.4,3.23-9.11a12.67,12.67,0,0,0-3.23-9.11,11.75,11.75,0,0,0-16.53,0,12.67,12.67,0,0,0-3.23,9.11q0,5.71,3.23,9.11a11.75,11.75,0,0,0,16.53,0Z" transform="translate(-490.73 -210.03)"/><path class="cls-2" d="M599,259.67a7,7,0,0,1-2-5.12,6.9,6.9,0,0,1,2-5,7.42,7.42,0,0,1,10.16,0,6.94,6.94,0,0,1,2,5,7,7,0,0,1-2,5.12,7.42,7.42,0,0,1-10.16,0Zm-1.47,8.22h13.09v45.16H597.49Z" transform="translate(-490.73 -210.03)"/><path class="cls-2" d="M624,250.77H637.1v62.28H624Z" transform="translate(-490.73 -210.03)"/><path class="cls-2" d="M694.51,294.16H660.35a10.63,10.63,0,0,0,4.37,6.63,14.38,14.38,0,0,0,8.56,2.44,17.31,17.31,0,0,0,6.25-1.05,15.21,15.21,0,0,0,5.08-3.32l7,7.56q-6.37,7.29-18.63,7.3a29.4,29.4,0,0,1-13.51-3,21.77,21.77,0,0,1-9.06-8.27,22.72,22.72,0,0,1-3.19-12,23,23,0,0,1,3.14-12A22.09,22.09,0,0,1,659,270.2a25.42,25.42,0,0,1,12.29-3,25.08,25.08,0,0,1,12,2.86,20.83,20.83,0,0,1,8.44,8.18,24.42,24.42,0,0,1,3.06,12.38C694.76,290.81,694.68,292,694.51,294.16Zm-30.63-14.52a10.73,10.73,0,0,0-3.7,6.89h22.25a10.79,10.79,0,0,0-3.7-6.84,11,11,0,0,0-7.38-2.56A11.25,11.25,0,0,0,663.88,279.64Z" transform="translate(-490.73 -210.03)"/><path class="cls-2" d="M745.75,272.26q5.16,5,5.16,14.94v25.85H737.82V289.21c0-3.58-.79-6.25-2.35-8s-3.84-2.65-6.8-2.65a10.4,10.4,0,0,0-7.89,3.07q-2.94,3.06-2.94,9.1v22.33H704.75V267.89h12.5v5.29a17.48,17.48,0,0,1,6.47-4.41,22.59,22.59,0,0,1,8.47-1.55Q740.59,267.22,745.75,272.26Z" transform="translate(-490.73 -210.03)"/><path class="cls-1" d="M808,267.89l-20.39,47.93q-3.11,7.8-7.68,11a18.79,18.79,0,0,1-11,3.19,22.89,22.89,0,0,1-7-1.09,15.58,15.58,0,0,1-5.62-3l4.78-9.32a11.1,11.1,0,0,0,3.49,2.1,10.88,10.88,0,0,0,3.9.75,6.93,6.93,0,0,0,4.37-1.3,11.07,11.07,0,0,0,3-4.32l.16-.42-19.55-45.49H770l12.67,30.64,12.76-30.64Z" transform="translate(-490.73 -210.03)"/><path class="cls-3" d="M860.1,267.89v45.16H847.68v-5.37a17.62,17.62,0,0,1-6.21,4.49,19.65,19.65,0,0,1-7.81,1.55q-8.89,0-14.1-5.12t-5.2-15.19V267.89h13.09v23.59q0,10.9,9.15,10.91a9.81,9.81,0,0,0,7.55-3.07c1.9-2,2.86-5.07,2.86-9.1V267.89Z" transform="translate(-490.73 -210.03)"/><path class="cls-1" d="M944.82,272.22q5,5,5,15v25.85h-13.1V289.21q0-5.37-2.22-8a7.81,7.81,0,0,0-6.34-2.65,9.36,9.36,0,0,0-7.3,3q-2.68,3-2.68,8.86v22.66h-13.1V289.21q0-10.65-8.56-10.66a9.24,9.24,0,0,0-7.21,3c-1.8,2-2.69,4.94-2.69,8.86v22.66H873.53V267.89H886v5.21a16.65,16.65,0,0,1,6.17-4.37,20.9,20.9,0,0,1,8-1.51,19.36,19.36,0,0,1,8.64,1.89,15.34,15.34,0,0,1,6.21,5.5,18.56,18.56,0,0,1,7-5.46,22.2,22.2,0,0,1,9.27-1.93Q939.83,267.22,944.82,272.22Z" transform="translate(-490.73 -210.03)"/><circle class="cls-1" cx="113.37" cy="44.61" r="7.64"/></svg>
