<svg id="katman_1" data-name="katman 1" xmlns="http://www.w3.org/2000/svg" viewBox="0 0 181.08 217.12"><defs><style>.cls-1{fill:#e40a7b;}.cls-2{fill:#272759;}</style></defs><circle class="cls-1" cx="143.66" cy="86" r="7.27"/><path class="cls-2" d="M694.74,362.26c-3,.35-5.86.58-8.47.65a.45.45,0,0,1-.44-.31,63.09,63.09,0,0,1-3.51-20.81l-2.22-149.3a.54.54,0,0,1,.51-.54c23.7-.88,37.13,5.92,36.45,23.24l2.67,126.19c.4,5.53,1.1,10.36,3.06,14.86A175.17,175.17,0,0,1,694.74,362.26Z" transform="translate(-653.97 -191.88)"/><path class="cls-2" d="M728.69,314.92l-.52-34a.89.89,0,0,1,.62-.87,70.25,70.25,0,0,1,21.56-3.37c25.2,0,47.18,13.23,58.77,32.81a.91.91,0,0,1-.15,1.11c-6.26,6-15.32,12.74-26.81,19.43a.9.9,0,0,1-1.3-.51c-4.29-13.27-15.93-22.77-29.63-22.77a29.81,29.81,0,0,0-20.09,7.88c-.31.28-.62.58-.92.87A.9.9,0,0,1,728.69,314.92Z" transform="translate(-653.97 -191.88)"/><path class="cls-2" d="M819,342.86c0,36.53-30.58,66.14-68.31,66.14a68.78,68.78,0,0,1-58.07-31.29c-.27-.41-.52-.82-.76-1.22s-.49-.8-.73-1.21a185.57,185.57,0,0,0,38.35-7.73q.48.51,1,1c.36.34.71.67,1.08,1a29.94,29.94,0,0,0,20,7.8c15.94,0,29.13-12.87,31.44-29.66.07-.51.13-1,.18-1.55s.08-1,.11-1.51c2.7-1.5,5.33-3,7.88-4.59a177.35,177.35,0,0,0,24.47-17.71c.15.43.29.87.42,1.31s.28.88.41,1.33A64.35,64.35,0,0,1,819,342.86Z" transform="translate(-653.97 -191.88)"/><path class="cls-2" d="M729.43,367.55a185.57,185.57,0,0,1-38.35,7.73,63.1,63.1,0,0,1-4.2-8.63q3.81-.13,8.16-.66a177.75,177.75,0,0,0,28.85-6.25A35.14,35.14,0,0,0,729.43,367.55Z" transform="translate(-653.97 -191.88)"/><path class="cls-1" d="M817.46,320.7c-.61.56-1.23,1.1-1.86,1.65a177.35,177.35,0,0,1-24.47,17.71c-2.55,1.55-5.18,3.09-7.88,4.59a272.44,272.44,0,0,1-25.68,12.6,270.81,270.81,0,0,1-28.14,10.3,185.57,185.57,0,0,1-38.35,7.73l-1.28.1c-18.86,1.31-31.59-2.41-34.93-10.21-3.67-8.56,4.07-21.89,20.76-35.9l.52,6c-10.42,9.53-14.59,17.68-12.07,23.61,2.35,5.51,10.34,8.18,22.8,7.75q3.81-.13,8.16-.66a177.75,177.75,0,0,0,28.85-6.25,284,284,0,0,0,58.61-25.2c12.26-7.08,22.3-14.38,29.27-21.22,8.67-8.46,12.61-16.19,10.21-21.82-1.75-4.1-6.43-6.61-13.93-7.47l-.14-6.15c14.16.24,23.45,3.94,26.24,10.48C837.49,296.16,831.41,308,817.46,320.7Z" transform="translate(-653.97 -191.88)"/></svg>
